<?xml version="1.0" encoding="utf-8"?>
<!-- Generator: Adobe Illustrator 18.0.0, SVG Export Plug-In . SVG Version: 6.00 Build 0)  -->
<!DOCTYPE svg PUBLIC "-//W3C//DTD SVG 1.1//EN" "http://www.w3.org/Graphics/SVG/1.1/DTD/svg11.dtd">
<svg version="1.1" id="Layer_1" xmlns="http://www.w3.org/2000/svg" xmlns:xlink="http://www.w3.org/1999/xlink" x="0px" y="0px"
	 viewBox="0 0 164.1 50" enable-background="new 0 0 164.1 50" xml:space="preserve">
<g>
	<g>
		<path fill="#FFFFFF" d="M159.2,0H63.1v25.8h96.1V0z M30.6,17.1C13.7,17.1,0,24.5,0,33.6C0,42.6,13.7,50,30.6,50
			c16.9,0,30.6-7.4,30.6-16.4C61.1,24.5,47.5,17.1,30.6,17.1z M73.3,34.7c0.3-0.2,0.6-0.4,0.8-0.7c0.3-0.4,0.5-0.9,0.5-1.3
			c0-0.4-0.1-0.9-0.4-1.2c-0.3-0.4-0.6-0.6-1-0.9c-0.4-0.2-0.8-0.4-1.3-0.4c-0.5-0.1-1.2-0.1-2.2-0.1h-5.1V40H69c1.6,0,2.6,0,3-0.1
			c0.7-0.1,1.3-0.2,1.7-0.5c0.5-0.3,0.9-0.6,1.1-1c0.3-0.4,0.4-0.9,0.4-1.4c0-0.6-0.2-1.1-0.7-1.6C74.3,35.1,73.8,34.9,73.3,34.7z
			 M67.5,32h1.2c1.1,0,1.8,0,2.1,0c0.4,0,0.6,0.1,0.8,0.3c0.2,0.1,0.2,0.3,0.2,0.6c0,0.2-0.1,0.4-0.3,0.6c-0.2,0.2-0.5,0.3-0.9,0.3
			c-0.2,0-0.8,0-1.8,0h-1.4V32z M72,37.6c-0.2,0.2-0.5,0.3-0.8,0.3C71,38,70.5,38,69.6,38h-2.1v-2.2h1.8c1.1,0,1.8,0,2.1,0.1
			c0.3,0.1,0.5,0.2,0.7,0.4c0.1,0.2,0.2,0.4,0.2,0.6C72.3,37.2,72.2,37.4,72,37.6z M79.7,30.1h-2.9V40h9v-2h-6.1V30.1z M94.3,35.5
			c0,0.7,0,1.3-0.1,1.6c-0.1,0.3-0.2,0.5-0.6,0.7c-0.3,0.2-0.8,0.3-1.5,0.3c-0.6,0-1.2-0.1-1.5-0.3c-0.4-0.2-0.6-0.5-0.7-0.8
			c0-0.2-0.1-0.6-0.1-1.5v-5.4H87v5.3c0,1.1,0.1,1.9,0.2,2.5c0.1,0.4,0.4,0.8,0.7,1.1c0.4,0.4,0.9,0.6,1.5,0.9
			c0.6,0.2,1.5,0.3,2.7,0.3c1,0,1.8-0.1,2.4-0.3c0.6-0.2,1.1-0.5,1.5-0.8c0.4-0.3,0.6-0.8,0.8-1.3c0.1-0.5,0.2-1.3,0.2-2.5v-5.2
			h-2.9V35.5z M102.1,35.8h6.1v-2h-6.1v-1.7h6.6v-2h-9.4V40h9.7v-2h-6.8V35.8z M120.9,36l-4.7-6h-2.7V40h2.7v-5.8l4.6,5.8h2.8v-9.9
			h-2.7V36z M131.3,29.9c-1,0-1.9,0.1-2.7,0.4c-0.6,0.2-1.1,0.5-1.6,0.9c-0.5,0.4-0.9,0.9-1.2,1.4c-0.4,0.7-0.6,1.5-0.6,2.5
			c0,1.6,0.6,2.8,1.7,3.7c1.1,0.9,2.6,1.3,4.4,1.3c1.8,0,3.3-0.5,4.4-1.4c1.1-0.9,1.7-2.2,1.7-3.8c0-1.6-0.6-2.9-1.7-3.8
			C134.6,30.4,133.1,29.9,131.3,29.9z M133.6,37.3c-0.6,0.5-1.3,0.8-2.3,0.8c-0.9,0-1.7-0.3-2.3-0.8c-0.6-0.5-0.9-1.3-0.9-2.3
			c0-1,0.3-1.8,0.9-2.3c0.6-0.5,1.4-0.8,2.3-0.8c1,0,1.7,0.3,2.3,0.8c0.6,0.5,0.9,1.3,0.9,2.3C134.4,36,134.1,36.8,133.6,37.3z
			 M137.9,32.1h3.6V40h2.9v-7.9h3.6v-2h-10.1V32.1z M151.9,35.8h6.1v-2h-6.1v-1.7h6.6v-2H149V40h9.7v-2h-6.8V35.8z M162.1,41.6
			C162.1,41.5,162.1,41.5,162.1,41.6c0.1-0.1,0.2-0.2,0.3-0.2c0.2-0.1,0.2-0.3,0.2-0.5c0-0.1,0-0.3-0.1-0.4
			c-0.1-0.1-0.2-0.2-0.4-0.3c-0.1,0-0.4-0.1-0.7-0.1h-1v2.6h0.6v-1h0.2c0.1,0,0.2,0,0.3,0.1c0.1,0.1,0.2,0.3,0.4,0.5l0.3,0.4h0.7
			l-0.4-0.6C162.4,41.8,162.2,41.7,162.1,41.6z M162,41c-0.1,0-0.2,0.1-0.5,0.1h-0.4v-0.6h0.4c0.2,0,0.3,0,0.4,0
			c0.1,0,0.1,0.1,0.1,0.1c0,0,0.1,0.1,0.1,0.2C162.1,40.9,162,41,162,41z M163.8,40.1c-0.2-0.4-0.5-0.7-0.9-0.9
			c-0.8-0.4-1.7-0.4-2.5,0c-0.4,0.2-0.7,0.5-0.9,0.9c-0.2,0.4-0.3,0.8-0.3,1.2c0,0.4,0.1,0.8,0.3,1.2c0.2,0.4,0.5,0.7,0.9,0.9
			c0.4,0.2,0.8,0.3,1.2,0.3s0.9-0.1,1.2-0.3c0.4-0.2,0.7-0.5,0.9-0.9c0.2-0.4,0.3-0.8,0.3-1.2C164.1,40.9,164,40.5,163.8,40.1z
			 M163.3,42.2c-0.2,0.3-0.4,0.5-0.7,0.7c-0.6,0.3-1.3,0.3-1.9,0c-0.3-0.2-0.6-0.4-0.7-0.7c-0.2-0.3-0.3-0.6-0.3-0.9
			c0-0.3,0.1-0.6,0.3-0.9c0.2-0.3,0.4-0.5,0.7-0.7c0.3-0.2,0.6-0.2,1-0.2c0.3,0,0.6,0.1,1,0.2c0.3,0.2,0.6,0.4,0.7,0.7
			c0.2,0.3,0.3,0.6,0.3,0.9C163.6,41.6,163.5,41.9,163.3,42.2z"/>
	</g>
</g>
</svg>
