<?xml version="1.0" encoding="utf-8"?>
<!-- Generator: Adobe Illustrator 18.0.0, SVG Export Plug-In . SVG Version: 6.00 Build 0)  -->
<!DOCTYPE svg PUBLIC "-//W3C//DTD SVG 1.1//EN" "http://www.w3.org/Graphics/SVG/1.1/DTD/svg11.dtd">
<svg version="1.1" id="Layer_1" xmlns="http://www.w3.org/2000/svg" xmlns:xlink="http://www.w3.org/1999/xlink" x="0px" y="0px"
	 viewBox="0 0 1594 758.1" enable-background="new 0 0 1594 758.1" xml:space="preserve">
<path display="none" fill="none" stroke="#CCCCCC" stroke-width="5" stroke-miterlimit="10" d="M1303.4,3v-4.3c0-2.2,1.8-4,4-4
	l56.7,0c2.2,0,4,1.8,4,4V3L1303.4,3z"/>
<path display="none" fill="none" stroke="#CCCCCC" stroke-width="5" stroke-miterlimit="10" d="M1167.7,3v-4.3c0-2.2,1.8-4,4-4
	l45.7,0c2.2,0,4,1.8,4,4V3L1167.7,3z"/>
<path display="none" fill="none" stroke="#CCCCCC" stroke-width="5" stroke-miterlimit="10" d="M1035.1,3v-4.3c0-2.2,1.8-4,4-4
	l45.7,0c2.2,0,4,1.8,4,4V3L1035.1,3z"/>
<path display="none" fill="none" stroke="#CCCCCC" stroke-width="5" stroke-miterlimit="10" d="M1590.7,630.3l0-120h5.3
	c2.2,0,4,1.8,4,4v112c0,2.2-1.8,4-4,4L1590.7,630.3z"/>
<g>
	<path fill="#CCCCCC" d="M1367.6,701.5l-1141,0l0-645l1141,0L1367.6,701.5z M231.6,696.5l1131,0l0-635l-1131,0L231.6,696.5z"/>
</g>
<g>
	<path fill="#CCCCCC" d="M1481,758.1l-1368,0c-30.2,0-58.6-11.8-79.9-33.1S0,675.3,0,645.1L0,113C0,50.7,50.7,0,113,0l1368,0
		c60.2,0,113,48.6,113,104v532.1c0,34.1-11.7,65.2-33,87.7C1540,745.9,1511.6,758.1,1481,758.1z M113,6C54,6,6,54,6,113l0,532.1
		c0,28.6,11.1,55.5,31.3,75.7c20.2,20.2,47.1,31.3,75.7,31.3l1368,0c61,0,107-49.9,107-116V104c0-24.3-11.4-49-31.3-67.7
		C1536,16.8,1509.1,6,1481,6L113,6z"/>
</g>
<g>
	<path fill="#CCCCCC" d="M117,451.6c-39.2,0-71.1-31.9-71.1-71.1c0-39.2,31.9-71.1,71.1-71.1c39.2,0,71.1,31.9,71.1,71.1
		C188,419.7,156.2,451.6,117,451.6z M117,314.5c-36.4,0-66.1,29.6-66.1,66.1c0,36.4,29.6,66.1,66.1,66.1c36.4,0,66.1-29.6,66.1-66.1
		C183,344.1,153.4,314.5,117,314.5z"/>
</g>
<g>
	<path fill="#CCCCCC" d="M312.6,437.9c-31.6,0-57.3-25.7-57.3-57.3c0-31.6,25.7-57.3,57.3-57.3c31.6,0,57.3,25.7,57.3,57.3
		C369.9,412.2,344.2,437.9,312.6,437.9z M312.6,328.2c-28.9,0-52.3,23.5-52.3,52.3c0,28.9,23.5,52.3,52.3,52.3h0
		c28.9,0,52.3-23.5,52.3-52.3C364.9,351.7,341.5,328.2,312.6,328.2z"/>
</g>
<g>
	<circle fill="#CCCCCC" cx="312.6" cy="380.5" r="37.5"/>
</g>
<g>
	<path fill="#CCCCCC" d="M1452.9,450.6c-9.6,0-17.5-7.9-17.5-17.5v-106c0-9.6,7.8-17.5,17.5-17.5s17.5,7.9,17.5,17.5v106
		C1470.4,442.7,1462.6,450.6,1452.9,450.6z M1452.9,314.6c-6.9,0-12.5,5.6-12.5,12.5v106c0,6.9,5.6,12.5,12.5,12.5
		s12.5-5.6,12.5-12.5v-106C1465.4,320.2,1459.8,314.6,1452.9,314.6z"/>
</g>
<g>
	<path fill="#CCCCCC" d="M128.7,410.3h-24.7c-9.4,0-17-7.6-17-17v-24.7c0-9.4,7.6-17,17-17h24.7c9.4,0,17,7.6,17,17v24.7
		C145.7,402.7,138.1,410.3,128.7,410.3z M104.1,355.7c-7.2,0-13,5.8-13,13v24.7c0,7.2,5.8,13,13,13h24.7c7.2,0,13-5.8,13-13v-24.7
		c0-7.2-5.8-13-13-13H104.1z"/>
</g>
<g>
	<path fill="#CCCCCC" d="M1512.7,396.5c-9.1,0-16.5-7.4-16.5-16.5s7.4-16.5,16.5-16.5s16.5,7.4,16.5,16.5S1521.8,396.5,1512.7,396.5
		z M1512.7,368.5c-6.3,0-11.5,5.2-11.5,11.5s5.2,11.5,11.5,11.5s11.5-5.2,11.5-11.5S1519.1,368.5,1512.7,368.5z"/>
</g>
<g>
	<g>
		<path fill="#CCCCCC" d="M725.6,139.9c-6.5,0-9.7-5.4-9.7-14.9c0-9.6,3.2-14.9,9.7-14.9c6.5,0,9.7,5.4,9.7,14.9
			C735.2,134.6,732,139.9,725.6,139.9z M725.6,136.8c3.6,0,5.5-3.3,5.5-11.8c0-8.5-1.9-11.8-5.5-11.8c-3.6,0-5.5,3.3-5.5,11.8
			C720,133.5,721.9,136.8,725.6,136.8z"/>
	</g>
	<g>
		<path fill="#CCCCCC" d="M749.7,139.9c-6.5,0-9.7-5.4-9.7-14.9c0-9.6,3.2-14.9,9.7-14.9c6.5,0,9.7,5.4,9.7,14.9
			C759.4,134.6,756.2,139.9,749.7,139.9z M749.7,136.8c3.6,0,5.5-3.3,5.5-11.8c0-8.5-1.9-11.8-5.5-11.8c-3.6,0-5.5,3.3-5.5,11.8
			C744.2,133.5,746.1,136.8,749.7,136.8z"/>
	</g>
	<g>
		<path fill="#CCCCCC" d="M767.1,117.8c1.7,0,3,1.3,3,3c0,1.7-1.3,3-3,3c-1.7,0-3-1.3-3-3C764.1,119.1,765.4,117.8,767.1,117.8z
			 M767.1,133.9c1.7,0,3,1.3,3,3c0,1.7-1.3,3-3,3c-1.7,0-3-1.3-3-3C764.1,135.3,765.4,133.9,767.1,133.9z"/>
	</g>
	<g>
		<path fill="#CCCCCC" d="M785,139.9c-6.5,0-9.7-5.4-9.7-14.9c0-9.6,3.2-14.9,9.7-14.9c6.5,0,9.7,5.4,9.7,14.9
			C794.6,134.6,791.4,139.9,785,139.9z M785,136.8c3.6,0,5.5-3.3,5.5-11.8c0-8.5-1.9-11.8-5.5-11.8c-3.6,0-5.5,3.3-5.5,11.8
			C779.4,133.5,781.3,136.8,785,136.8z"/>
	</g>
	<g>
		<path fill="#CCCCCC" d="M809.1,139.9c-6.5,0-9.7-5.4-9.7-14.9c0-9.6,3.2-14.9,9.7-14.9s9.7,5.4,9.7,14.9
			C818.8,134.6,815.6,139.9,809.1,139.9z M809.1,136.8c3.6,0,5.5-3.3,5.5-11.8c0-8.5-1.9-11.8-5.5-11.8c-3.6,0-5.5,3.3-5.5,11.8
			C803.6,133.5,805.5,136.8,809.1,136.8z"/>
	</g>
	<g>
		<path fill="#CCCCCC" d="M826.5,117.8c1.7,0,3,1.3,3,3c0,1.7-1.3,3-3,3c-1.7,0-3-1.3-3-3C823.5,119.1,824.8,117.8,826.5,117.8z
			 M826.5,133.9c1.7,0,3,1.3,3,3c0,1.7-1.3,3-3,3c-1.7,0-3-1.3-3-3C823.5,135.3,824.8,133.9,826.5,133.9z"/>
	</g>
	<g>
		<path fill="#CCCCCC" d="M844.4,139.9c-6.5,0-9.7-5.4-9.7-14.9c0-9.6,3.2-14.9,9.7-14.9c6.5,0,9.7,5.4,9.7,14.9
			C854,134.6,850.8,139.9,844.4,139.9z M844.4,136.8c3.6,0,5.5-3.3,5.5-11.8c0-8.5-1.9-11.8-5.5-11.8c-3.6,0-5.5,3.3-5.5,11.8
			C838.8,133.5,840.7,136.8,844.4,136.8z"/>
	</g>
	<g>
		<path fill="#CCCCCC" d="M868.5,139.9c-6.5,0-9.7-5.4-9.7-14.9c0-9.6,3.2-14.9,9.7-14.9c6.5,0,9.7,5.4,9.7,14.9
			C878.2,134.6,875,139.9,868.5,139.9z M868.5,136.8c3.6,0,5.5-3.3,5.5-11.8c0-8.5-1.9-11.8-5.5-11.8c-3.6,0-5.5,3.3-5.5,11.8
			C863,133.5,864.9,136.8,868.5,136.8z"/>
	</g>
</g>
<g>
	<path fill="#CCCCCC" d="M939.6,163.5h-285v-77h285V163.5z M659.6,158.5h275v-67h-275V158.5z"/>
</g>
<g>
	<path fill="#CCCCCC" d="M1027.5,596.3c-10.5-22.8-31.2-37.1-65.1-44.9c-85.1-19.6-84.9-26.4-75-45c35.2-66.3,62-153.3,23.3-217.6
		C888.6,252.1,848.6,231,801,231c-48,0-88.2,21.4-110.3,58.6c-31.6,53.1-23,130.2,24.1,217c10,18.4,10.2,25.1-75.1,44.8
		c-33.9,7.8-54.6,22.1-65.1,44.9c-10.5,22.7-8.8,46.3-8.8,104.7h470.5C1036.3,641.9,1037.9,618.9,1027.5,596.3z M1026.3,680
		c0,3.5,0,16,0,16H575.7c0,0,0-12.5,0-16.1c-0.2-42.4-0.2-61.7,7.9-79.4c9.1-19.8,27.7-32.3,58.3-39.3
		c61.5-14.2,79.9-21.6,85.7-34.4c4.3-9.6-0.7-18.8-4-24.9c-45.4-83.6-54-157.2-24.3-207.1C719.6,260.6,756.6,241,801,241
		c44,0,80.9,19.3,101.1,52.9c40,66.6,2.4,158.8-23.6,207.8c-3.3,6.2-8.2,15.5-3.8,25c5.2,11.4,18.7,19,85.5,34.4
		c30.6,7.1,49.2,19.6,58.3,39.3C1026.6,618.2,1026.5,637.5,1026.3,680z"/>
</g>
</svg>
