<?xml version="1.0" encoding="utf-8"?>
<!-- Generator: Adobe Illustrator 18.0.0, SVG Export Plug-In . SVG Version: 6.00 Build 0)  -->
<!DOCTYPE svg PUBLIC "-//W3C//DTD SVG 1.1//EN" "http://www.w3.org/Graphics/SVG/1.1/DTD/svg11.dtd">
<svg version="1.1" id="Layer_1" xmlns="http://www.w3.org/2000/svg" xmlns:xlink="http://www.w3.org/1999/xlink" x="0px" y="0px"
	 viewBox="240.2 208.7 799.5 382.3" enable-background="new 240.2 208.7 799.5 382.3" xml:space="preserve">
<g>
	<path fill="#CCCCCC" d="M352.9,240.9v322h569.6v-322H352.9z M920,243.4v317H355.4v-317H920z"/>
	<path fill="#CCCCCC" d="M1019,573.9c10.6-11.2,16.5-26.8,16.5-43.8v-1.6h1c1.8,0,3.2-1.5,3.2-3.2v-55.9c0-1.8-1.5-3.2-3.2-3.2h-1
		V264.5c0-27.7-26.4-51.9-56.4-51.9H924v-0.7c0-1.8-1.5-3.2-3.2-3.2h-28.3c-1.8,0-3.2,1.5-3.2,3.2v0.7h-38.4v-0.7
		c0-1.8-1.5-3.2-3.2-3.2H825c-1.8,0-3.2,1.5-3.2,3.2v0.7h-36.9v-0.7c0-1.8-1.5-3.2-3.2-3.2h-22.8c-1.8,0-3.2,1.5-3.2,3.2v0.7H296.6
		c-31.1,0-56.4,25.3-56.4,56.4v265.6c0,31.1,25.3,56.4,56.4,56.4h682.9C994.4,591.1,1008.6,585,1019,573.9z M1036.6,468.6
		c0.4,0,0.8,0.3,0.8,0.8v55.9c0,0.4-0.3,0.8-0.8,0.8h-1v-57.4L1036.6,468.6L1036.6,468.6z M891.7,211.9c0-0.4,0.3-0.8,0.8-0.8h28.3
		c0.4,0,0.8,0.3,0.8,0.8v0.7h-29.8L891.7,211.9L891.7,211.9z M824,211.9c0-0.4,0.3-0.8,0.8-0.8h22.8c0.4,0,0.8,0.3,0.8,0.8v0.7
		h-24.3L824,211.9L824,211.9z M757.8,211.9c0-0.4,0.3-0.8,0.8-0.8h22.8c0.4,0,0.8,0.3,0.8,0.8v0.7h-24.3L757.8,211.9L757.8,211.9z
		 M296.2,588.1c-29.5,0-53.4-24-53.4-53.4V269.1c0-29.5,24-53.4,53.4-53.4h682.9c14.1,0,27.5,5.4,37.8,15.1
		c9.9,9.3,15.6,21.7,15.6,33.7v265.6c0,33-23,57.9-53.4,57.9L296.2,588.1L296.2,588.1z"/>
	<path fill="#CCCCCC" d="M333.6,402.6c0-19.6-15.9-35.4-35.4-35.4s-35.4,15.9-35.4,35.4s15.9,35.4,35.4,35.4
		S333.6,422.2,333.6,402.6z M265.3,402.6c0-18.2,14.8-32.9,32.9-32.9c18.2,0,32.9,14.8,32.9,32.9s-14.8,32.9-32.9,32.9
		C280,435.5,265.3,420.8,265.3,402.6z"/>
	<path fill="#CCCCCC" d="M956.3,375.9v52.9c0,4.8,3.9,8.8,8.7,8.8s8.7-3.9,8.7-8.8v-52.9c0-4.8-3.9-8.7-8.7-8.7
		C960.3,367.2,956.3,371,956.3,375.9z M971.3,375.9v52.9c0,3.4-2.8,6.2-6.2,6.2s-6.2-2.8-6.2-6.2v-52.9c0-3.4,2.8-6.2,6.2-6.2
		S971.3,372.4,971.3,375.9z"/>
	<path fill="#CCCCCC" d="M312.6,409v-12.3c0-4.7-3.8-8.5-8.5-8.5h-12.3c-4.7,0-8.5,3.8-8.5,8.5V409c0,4.7,3.8,8.5,8.5,8.5h12.3
		C308.8,417.5,312.6,413.7,312.6,409z M291.7,415.5c-3.6,0-6.5-2.9-6.5-6.5v-12.3c0-3.6,2.9-6.5,6.5-6.5H304c3.6,0,6.5,2.9,6.5,6.5
		V409c0,3.6-2.9,6.5-6.5,6.5H291.7z"/>
	<path fill="#CCCCCC" d="M986.7,402.3c0,4.5,3.7,8.2,8.2,8.2c4.5,0,8.2-3.7,8.2-8.2s-3.7-8.2-8.2-8.2
		C990.4,394.1,986.7,397.8,986.7,402.3z M1000.7,402.3c0,3.2-2.6,5.8-5.8,5.8s-5.8-2.6-5.8-5.8c0-3.2,2.6-5.7,5.8-5.7
		S1000.7,399.1,1000.7,402.3z"/>
</g>
</svg>
