<?xml version="1.0" encoding="utf-8"?>
<!-- Generator: Adobe Illustrator 18.0.0, SVG Export Plug-In . SVG Version: 6.00 Build 0)  -->
<!DOCTYPE svg PUBLIC "-//W3C//DTD SVG 1.1//EN" "http://www.w3.org/Graphics/SVG/1.1/DTD/svg11.dtd">
<svg version="1.1" id="Layer_1" xmlns="http://www.w3.org/2000/svg" xmlns:xlink="http://www.w3.org/1999/xlink" x="0px" y="0px"
	 viewBox="0 0 383 801.3" enable-background="new 0 0 383 801.3" xml:space="preserve">
<g>
	<path fill="#CCCCCC" d="M32.2,688h322.5V117.5H32.2V688z M34.7,120h317.5v565.5H34.7V120z"/>
	<path fill="#CCCCCC" d="M365.8,20.8C354.6,10.2,339,4.3,321.9,4.3h-1.6v-1c0-1.8-1.5-3.2-3.2-3.2h-56c-1.8,0-3.2,1.5-3.2,3.2v1
		H55.9c-27.7,0-52,26.4-52,56.5V116H3.2c-1.8,0-3.2,1.5-3.2,3.2v28.3c0,1.8,1.5,3.2,3.2,3.2h0.7v38.5H3.2c-1.8,0-3.2,1.5-3.2,3.2
		v22.8c0,1.8,1.5,3.2,3.2,3.2h0.7v37H3.2c-1.8,0-3.2,1.5-3.2,3.2v22.8c0,1.8,1.5,3.2,3.2,3.2h0.7v459.8c0,31.2,25.3,56.5,56.5,56.5
		h266c31.2,0,56.5-25.3,56.5-56.5v-684C383,45.5,376.9,31.3,365.8,20.8z M260.3,3.2c0-0.4,0.3-0.8,0.8-0.8h56c0.4,0,0.8,0.3,0.8,0.8
		v1h-57.5V3.2z M3.2,148.3c-0.4,0-0.8-0.3-0.8-0.8v-28.3c0-0.4,0.3-0.8,0.8-0.8h0.7v29.8H3.2z M3.2,216.2c-0.4,0-0.8-0.3-0.8-0.8
		v-22.8c0-0.4,0.3-0.8,0.8-0.8h0.7v24.3H3.2z M3.2,282.5c-0.4,0-0.8-0.3-0.8-0.8v-22.8c0-0.4,0.3-0.8,0.8-0.8h0.7v24.3H3.2z
		 M380,744.8c0,29.5-24,53.5-53.5,53.5h-266c-29.5,0-53.5-24-53.5-53.5v-684c0-14.1,5.4-27.5,15.1-37.9C31.4,13,43.8,7.3,55.9,7.3
		h266c33.1,0,58,23,58,53.5V744.8z"/>
	<path fill="#CCCCCC" d="M194.2,707.3c-19.6,0-35.5,15.9-35.5,35.5c0,19.6,15.9,35.5,35.5,35.5c19.6,0,35.5-15.9,35.5-35.5
		C229.7,723.2,213.8,707.3,194.2,707.3z M194.2,775.8c-18.2,0-33-14.8-33-33c0-18.2,14.8-33,33-33c18.2,0,33,14.8,33,33
		C227.2,761,212.4,775.8,194.2,775.8z"/>
	<path fill="#CCCCCC" d="M167.5,83.6h53c4.8,0,8.8-3.9,8.8-8.7c0-4.8-3.9-8.7-8.8-8.7h-53c-4.8,0-8.7,3.9-8.7,8.7
		C158.7,79.6,162.6,83.6,167.5,83.6z M167.5,68.6h53c3.4,0,6.2,2.8,6.2,6.2s-2.8,6.2-6.2,6.2h-53c-3.4,0-6.2-2.8-6.2-6.2
		S164,68.6,167.5,68.6z"/>
	<path fill="#CCCCCC" d="M200.6,728.4h-12.3c-4.7,0-8.5,3.8-8.5,8.5v12.3c0,4.7,3.8,8.5,8.5,8.5h12.3c4.7,0,8.5-3.8,8.5-8.5v-12.3
		C209.1,732.2,205.3,728.4,200.6,728.4z M207.1,749.3c0,3.6-2.9,6.5-6.5,6.5h-12.3c-3.6,0-6.5-2.9-6.5-6.5v-12.3
		c0-3.6,2.9-6.5,6.5-6.5h12.3c3.6,0,6.5,2.9,6.5,6.5V749.3z"/>
	<path fill="#CCCCCC" d="M193.9,53.2c4.5,0,8.2-3.7,8.2-8.2s-3.7-8.2-8.2-8.2s-8.2,3.7-8.2,8.2S189.4,53.2,193.9,53.2z M193.9,39.2
		c3.2,0,5.8,2.6,5.8,5.8s-2.6,5.8-5.8,5.8s-5.7-2.6-5.7-5.8S190.7,39.2,193.9,39.2z"/>
</g>
</svg>
