<?xml version="1.0" encoding="utf-8"?>
<!-- Generator: Adobe Illustrator 18.0.0, SVG Export Plug-In . SVG Version: 6.00 Build 0)  -->
<!DOCTYPE svg PUBLIC "-//W3C//DTD SVG 1.1//EN" "http://www.w3.org/Graphics/SVG/1.1/DTD/svg11.dtd">
<svg version="1.1" id="Layer_1" xmlns="http://www.w3.org/2000/svg" xmlns:xlink="http://www.w3.org/1999/xlink" x="0px" y="0px"
	 viewBox="0 323.9 1280 152.3" enable-background="new 0 323.9 1280 152.3" xml:space="preserve">
<g>
	<g>
		<path fill="#FFFFFF" d="M441,393.9c-20.3-6.6-34.5-12.7-34.5-31.5c0-11.7,11.2-26.4,34.5-26.4c18.3,0,32,9.1,34.5,22.8h8.6
			c-3-17.8-20.8-30.5-43.1-30.5c-29.9,0-43.1,18.3-43.1,34.5c0,23.3,15.7,31,39.1,39.1c24.4,8.1,41.1,15.2,41.1,34.5
			c0,18.8-17.8,28.9-35.5,28.9c-21.8,0-35-9.1-38.1-22.8h-8.6c3,17.8,21.3,30.5,46.2,30.5c22.8,0,44.2-13.2,44.2-37.6
			C487.2,412.2,469,403.6,441,393.9z M320.8,472.6h8.6V331h-8.6V472.6z M208.6,409.6c18.8,0,40.1-12.2,40.1-38.1
			c0-29.4-21.3-39.6-46.2-39.6h-49.2v141.6h8.6v-133h40.6c20.8,0,37.6,8.1,37.6,31c0,23.3-17.3,30.5-37.6,30.5h-41.1v8.1h37l0,0
			l43.6,63.4h10.2L208.6,409.6L208.6,409.6z M679.6,340.6L679.6,340.6L679.6,340.6l-1.5-16.2l-58.4,132.5l-58.4-132.5l-1.5,15.7l0,0
			l0,0v0.5l-13.2,131.5h8.6l11.2-116.7l53.3,120.8L673,355.8l11.2,116.7h8.6l-13.2-131.5V340.6z M1069.9,472.6h8.6V331.5h-8.6V472.6
			z M1220.1,463.9c-36,0-63.9-27.9-63.9-63.9s27.9-63.9,63.9-63.9c20.8,0,37,8.1,47.7,20.3c0.5,0.5,1,1.5,1.5,2h10.7
			c-0.5-0.5-1-1.5-1.5-2c-12.7-17.8-33-29.4-58.9-29.4c-40.6,0-72.6,32.5-72.6,72.6s32,72.1,72.6,72.1c25.4,0,46.7-9.6,58.9-29.9
			h-10.7C1257.2,455.8,1240.4,463.9,1220.1,463.9z M752.2,472.6h9.1l54.8-127.9L873,472.6h9.1l-66-148.7L752.2,472.6z M49.7,329.5H0
			v141.6h8.6v-60.4h41.6c25.4,0,46.2-12.2,46.2-39.6C95.9,341.6,75.1,329.5,49.7,329.5z M50.2,402.5H8.6v-64.5h41.1
			c20.8,0,37.6,9.6,37.6,32.5C87.8,393.9,70,402.5,50.2,402.5z M640,400L640,400L640,400L640,400L640,400z M909.5,338.6h43.1v134
			h10.2v-134h46.7V332h-100V338.6z"/>
	</g>
</g>
</svg>
